<svg width="23" height="23" viewBox="0 0 23 23" fill="none" xmlns="http://www.w3.org/2000/svg">
<path d="M22.1331 16.2842C22.4809 16.4581 22.7418 16.8494 22.7418 17.2842C22.7418 17.3277 22.7418 17.4147 22.7418 17.5016L21.6983 22.0235C21.5679 22.5018 21.1766 22.8061 20.6983 22.8061C9.52397 22.8061 0.523656 13.8058 0.523656 2.63152C0.523656 2.15325 0.828014 1.76193 1.30629 1.63149L5.82819 0.587973C5.91515 0.587973 6.00211 0.544494 6.04559 0.544494C6.48039 0.544494 6.8717 0.805372 7.04562 1.19669L9.13265 6.06643C9.17613 6.19687 9.21961 6.32731 9.21961 6.45774C9.21961 6.80558 9.04569 7.10994 8.82829 7.28386L6.17603 9.45785C7.78478 12.8493 10.4805 15.545 13.8719 17.1538L16.0459 14.5015C16.2199 14.2841 16.5242 14.1102 16.8286 14.1102C17.0025 14.1102 17.1329 14.1537 17.2634 14.1971L22.1331 16.2842Z" fill="white"/>
</svg>
