<svg width="23" height="18" viewBox="0 0 23 18" fill="none" xmlns="http://www.w3.org/2000/svg">
<path d="M22.3505 6.47413C22.5244 6.34369 22.7853 6.47413 22.7853 6.69153V15.5614C22.7853 16.7354 21.8288 17.6484 20.6983 17.6484H2.61069C1.43673 17.6484 0.523656 16.7354 0.523656 15.5614V6.69153C0.523656 6.47413 0.741055 6.34369 0.914974 6.47413C1.91501 7.25677 3.17592 8.21332 7.61086 11.4308C8.52394 12.083 10.0892 13.5179 11.6545 13.5179C13.1763 13.5179 14.785 12.083 15.6546 11.4308C20.0896 8.21332 21.3505 7.25677 22.3505 6.47413ZM11.6545 12.083C10.611 12.1265 9.17613 10.8221 8.43698 10.3004C2.65417 6.12629 2.21937 5.73498 0.914974 4.69146C0.654095 4.51754 0.523656 4.21318 0.523656 3.86535V3.03923C0.523656 1.90876 1.43673 0.9522 2.61069 0.9522H20.6983C21.8288 0.9522 22.7853 1.90876 22.7853 3.03923V3.86535C22.7853 4.21318 22.6114 4.51754 22.3505 4.69146C21.0461 5.73498 20.6113 6.12629 14.8285 10.3004C14.0893 10.8221 12.6545 12.1265 11.6545 12.083Z" fill="white"/>
</svg>
