<svg width="28" height="28" viewBox="0 0 28 28" fill="none" xmlns="http://www.w3.org/2000/svg">
<path d="M13.9974 2.33203C8.86406 2.33203 4.66406 6.53203 4.66406 11.6654C4.66406 17.9654 12.8307 25.082 13.1807 25.432C13.4141 25.5487 13.7641 25.6654 13.9974 25.6654C14.2307 25.6654 14.5807 25.5487 14.8141 25.432C15.1641 25.082 23.3307 17.9654 23.3307 11.6654C23.3307 6.53203 19.1307 2.33203 13.9974 2.33203ZM13.9974 22.982C11.5474 20.6487 6.9974 15.632 6.9974 11.6654C6.9974 7.81536 10.1474 4.66536 13.9974 4.66536C17.8474 4.66536 20.9974 7.81536 20.9974 11.6654C20.9974 15.5154 16.4474 20.6487 13.9974 22.982ZM13.9974 6.9987C11.4307 6.9987 9.33073 9.0987 9.33073 11.6654C9.33073 14.232 11.4307 16.332 13.9974 16.332C16.5641 16.332 18.6641 14.232 18.6641 11.6654C18.6641 9.0987 16.5641 6.9987 13.9974 6.9987ZM13.9974 13.9987C12.7141 13.9987 11.6641 12.9487 11.6641 11.6654C11.6641 10.382 12.7141 9.33203 13.9974 9.33203C15.2807 9.33203 16.3307 10.382 16.3307 11.6654C16.3307 12.9487 15.2807 13.9987 13.9974 13.9987Z" fill="white"/>
</svg>
