<svg id="Layer_1" data-name="Layer 1" xmlns="http://www.w3.org/2000/svg" viewBox="0 0 327.76 115.38"><defs><style>.cls-1{fill:#1e4e87;}.cls-2{fill:#1d4e86;}.cls-3{fill:#245088;}.cls-4{fill:#6a9cd1;}.cls-5{fill:#225088;}.cls-6{fill:#235088;}.cls-7{fill:#6a9cd2;}.cls-8{fill:#699cd2;}.cls-9{fill:#689bd1;}.cls-10{fill:#214f87;}.cls-11{fill:#295289;}.cls-12{fill:#6b9cd2;}.cls-13{fill:#f8f8fb;}.cls-14{fill:#f8f9fb;}.cls-15{fill:#fbfcfe;}.cls-16{fill:#edebf1;}.cls-17{fill:#edecf1;}</style></defs><path class="cls-1" d="M145.34,419.88H111.9c-.39-1.42-.5-112.8-.11-115.23.55,0,1.12-.08,1.69-.08q38.31,0,76.61,0A36.65,36.65,0,0,1,226,332.88a41.1,41.1,0,0,1,1,7.75c.17,3.71.05,7.44.05,11.32-22.61-10.67-44.07-9.38-63.86,6.3C148.54,369.81,137.12,392.5,145.34,419.88Z" transform="translate(-111.55 -304.55)"/><path class="cls-2" d="M157.82,419.87A45.26,45.26,0,0,1,227,366c0,3.3.05,6.69,0,10.08-.06,3.92.06,7.86-.36,11.73-1.64,15-13.41,27.94-28.26,31.15a38.84,38.84,0,0,1-7.75.88c-10.58.1-21.15,0-31.73,0C158.57,419.92,158.24,419.89,157.82,419.87Z" transform="translate(-111.55 -304.55)"/><path class="cls-3" d="M265.26,358.9h-6.34c-.08-.87-.14-1.67-.23-2.73-.52.46-.84.75-1.17,1a10,10,0,0,1-15.07-2.52,15.35,15.35,0,0,1,.07-16,9.92,9.92,0,0,1,15.22-2.29c.24.21.47.43,1,.91V325.15h6.53Zm-6.46-12c0-1.24.05-2.49,0-3.72a2.27,2.27,0,0,0-.48-1.41c-2.76-2.91-8.17-3.3-10.39,1.17a8.59,8.59,0,0,0-.64,5.72c1.08,5.23,6.43,6.57,10.35,3.67a2.58,2.58,0,0,0,1.2-2.5C258.73,348.83,258.8,347.85,258.8,346.87Z" transform="translate(-111.55 -304.55)"/><path class="cls-3" d="M338,366.86V334.51h6.41c0,.83.1,1.59.16,2.56.44-.35.79-.59,1.1-.86a10,10,0,0,1,15.23,2.52,15.65,15.65,0,0,1,0,15.89,10,10,0,0,1-15.2,2.53l-1.15-1c0,3.77-.05,7.24-.07,10.71Zm6.49-20.18c0,1.11,0,2.22,0,3.32a2.2,2.2,0,0,0,.92,2c2,1.6,4.26,2.31,6.74,1.4a6,6,0,0,0,3.88-5.2,6.58,6.58,0,0,0,.15-1.16c0-2.81-.66-5.35-3.34-6.8-2.44-1.32-4.78-.75-7,.72a2.6,2.6,0,0,0-1.38,2.58C344.57,344.59,344.49,345.64,344.49,346.68Z" transform="translate(-111.55 -304.55)"/><path class="cls-4" d="M338,366.86h6.47c0,3.13,0,6.26,0,9.39v23.51c-2.18.13-4.22.08-6.4,0-.09-.85-.18-1.61-.28-2.54-.41.3-.76.52-1.07.79a10,10,0,0,1-15-2.44,13.23,13.23,0,0,1-1.89-6.49,18,18,0,0,1,1.38-8.4c2.91-6.15,11.23-7.86,15.91-3.06.14.14.31.24.73.57C338.1,374.29,337.82,370.57,338,366.86Zm0,20.77c0-1.1.05-2.22,0-3.32a2.69,2.69,0,0,0-.51-1.59c-2.87-3-8.24-3-10.23,1.18a9.39,9.39,0,0,0-.72,4.57,6.08,6.08,0,0,0,3.49,5.67c2.45,1.19,4.7.52,6.81-.89A2.41,2.41,0,0,0,338,391C337.9,389.85,338,388.74,338,387.63Z" transform="translate(-111.55 -304.55)"/><path class="cls-5" d="M367.73,358.89V325H374v12.3c.65-.47,1-.7,1.32-1a11.8,11.8,0,0,1,9.76-2.35,6.33,6.33,0,0,1,5.4,5.45,13.87,13.87,0,0,1,.23,2.14c0,5.35,0,10.7,0,16,0,.38-.07.76-.11,1.22h-6.28c0-.55-.12-1.1-.12-1.66,0-4.24,0-8.48,0-12.72,0-4.07-2.31-5.8-6.26-4.66a9.85,9.85,0,0,0-2.43,1.21A3.07,3.07,0,0,0,374,344c.11,4.31.05,8.61,0,12.92,0,.63,0,1.27-.08,2Z" transform="translate(-111.55 -304.55)"/><path class="cls-6" d="M295.11,348.8H277.19a6,6,0,0,0,5.89,5.57,11.11,11.11,0,0,0,7.5-2.32l2.81,4.13a23.73,23.73,0,0,1-2,1.39,16,16,0,0,1-11.18,1.67c-6.66-1.33-10.65-6.93-10-13.78a12.63,12.63,0,0,1,16.53-11.09,11.26,11.26,0,0,1,7.31,6.85A16.39,16.39,0,0,1,295.11,348.8Zm-6.34-4.53c-.4-3.39-2.42-5.23-5.69-5.29-3.45-.06-5.6,1.77-6.09,5.29Z" transform="translate(-111.55 -304.55)"/><path class="cls-6" d="M420.62,348.77H402.31a6,6,0,0,0,4.16,5.16,9.54,9.54,0,0,0,7.75-.81c.52-.27,1-.63,1.64-1l2.86,4.08c-.76.53-1.41,1.07-2.13,1.47a16.13,16.13,0,0,1-11,1.63c-7-1.35-11-7.32-9.94-14.73A12.5,12.5,0,0,1,412,334.37c4.72,1.48,7.22,4.95,8.16,9.63A46.68,46.68,0,0,1,420.62,348.77Zm-18.39-4.57c2.57.38,10.56.27,11.88-.13-.56-3.34-2.51-5.05-5.79-5.09S403,340.63,402.23,344.2Z" transform="translate(-111.55 -304.55)"/><path class="cls-7" d="M390.47,387.62c.28,6.37-4.17,12.81-12.75,12.84s-12.86-6.38-12.88-12.77,4.12-12.8,12.81-12.82S390.71,381.34,390.47,387.62Zm-19.15-.05.22.06c0,.52,0,1.05.08,1.57a6.39,6.39,0,0,0,4.9,5.46,6.05,6.05,0,0,0,6.52-3.28,8.27,8.27,0,0,0,0-7.37,5.66,5.66,0,0,0-5.3-3.4,5.58,5.58,0,0,0-5.37,3.26A20.25,20.25,0,0,0,371.32,387.57Z" transform="translate(-111.55 -304.55)"/><path class="cls-8" d="M307.05,375.64c.76-.05,1.27-.11,1.78-.12h4.61v24.22c-2,.16-4.06.08-6.22,0-.1-.88-.19-1.63-.3-2.56l-1.3.94a11.65,11.65,0,0,1-9.84,1.92,6.18,6.18,0,0,1-4.92-6.26c-.08-4.7,0-9.4,0-14.1,0-1.3,0-2.59,0-4.05h6.23c0,.68.09,1.31.1,1.94,0,4.12,0,8.23,0,12.34,0,3.81,2.39,5.58,6.06,4.52a10.47,10.47,0,0,0,2.15-.92,3,3,0,0,0,1.71-3c-.08-4.24,0-8.49,0-12.73Z" transform="translate(-111.55 -304.55)"/><path class="cls-7" d="M244.91,396.44l2.43-4c1.93.87,3.65,1.76,5.46,2.44a7.26,7.26,0,0,0,5.17.23,4,4,0,0,0,1.46-.9,1.61,1.61,0,0,0-.46-2.75,23.6,23.6,0,0,0-3.52-1.11c-1.94-.55-3.94-.95-5.81-1.67A6,6,0,0,1,245.7,384a6.76,6.76,0,0,1,2.6-6.92,11.08,11.08,0,0,1,7.16-2.21,15.63,15.63,0,0,1,8.38,2.29,17.71,17.71,0,0,1,1.42,1.1l-2.33,4.2c-.53-.32-1-.56-1.37-.82a10.54,10.54,0,0,0-6.49-1.79,3.71,3.71,0,0,0-2.8,1.19,1.36,1.36,0,0,0,.34,2.3,8.13,8.13,0,0,0,2.18.8c1.77.45,3.59.73,5.32,1.28,2.54.81,4.83,2,5.71,4.85a7.15,7.15,0,0,1-3.5,8.67c-5.2,2.8-12.86,1.56-17-1.84C245.17,397,245.11,396.77,244.91,396.44Z" transform="translate(-111.55 -304.55)"/><path class="cls-7" d="M412.87,382.18c-2-.79-3.84-1.64-5.74-2.19a5.44,5.44,0,0,0-4.19.38,1.86,1.86,0,0,0-1.22,1.82,1.59,1.59,0,0,0,1.37,1.47c1.69.47,3.42.8,5.11,1.3a28,28,0,0,1,4.38,1.61c4.54,2.26,4.55,9.5-.08,12.16a13.72,13.72,0,0,1-7.52,1.73,16.37,16.37,0,0,1-9.37-3c-.31-.22-.57-.5-1-.87l2.6-4.26c.48.26.86.45,1.23.68a16.75,16.75,0,0,0,5.77,2.32,6.54,6.54,0,0,0,4-.35,2.15,2.15,0,0,0,1.46-2.12,1.84,1.84,0,0,0-1.59-1.74c-1.51-.4-3.05-.69-4.54-1.14a30.87,30.87,0,0,1-4.95-1.74c-4.11-2.05-3.89-7.81-1.48-10.3a10.67,10.67,0,0,1,7.41-3.08,15.64,15.64,0,0,1,10.59,3.32C414.33,379.62,413.54,381,412.87,382.18Z" transform="translate(-111.55 -304.55)"/><path class="cls-6" d="M320.9,338.28l-4,3.78c-.32-.27-.62-.49-.89-.73a6.44,6.44,0,0,0-10.78,3.22,9.8,9.8,0,0,0,.12,4.6,6.37,6.37,0,0,0,10.5,3,7.4,7.4,0,0,0,.82-1l4.13,3.84c-2.36,4.39-8.6,5.21-12.72,4.28a12.14,12.14,0,0,1-9.75-11.07c-.49-6.39,2.44-11.39,7.87-13.45S317.62,334,320.9,338.28Z" transform="translate(-111.55 -304.55)"/><path class="cls-9" d="M273.6,381h-4v-5.39l4-.24V369h6.36v6.49h4.91V381H280.2a8.34,8.34,0,0,0-.23,1.32q0,4.61,0,9.2a5.67,5.67,0,0,0,.22,1.54,2.11,2.11,0,0,0,2.49,1.67,17.75,17.75,0,0,0,1.78-.39c.44,1.47.86,2.93,1.32,4.49-1.65,1.5-3.68,1.64-5.68,1.65a7.93,7.93,0,0,1-3-.66,5.36,5.36,0,0,1-3.45-5.22c-.05-3.72,0-7.44,0-11.16Z" transform="translate(-111.55 -304.55)"/><path class="cls-10" d="M431.58,358.92h-6.1c-.43-1.34-.58-21.32-.17-24.41h6.19c.06.95.11,1.82.18,2.93,2.28-2,4.51-3.63,7.63-3.53V340a9.74,9.74,0,0,0-5.73,1.09,3.33,3.33,0,0,0-2.05,3.39c.17,4.1.05,8.21.05,12.32Z" transform="translate(-111.55 -304.55)"/><path class="cls-11" d="M325.24,334.47h6.27v24.38h-6.27Z" transform="translate(-111.55 -304.55)"/><path class="cls-8" d="M352.13,375.61h6.38v24.08c-2,.29-4,.05-6.1.15-.54-2.1-.22-4.11-.27-6.09s0-4.05,0-6.08V375.61Z" transform="translate(-111.55 -304.55)"/><path class="cls-3" d="M332.21,327.94a3.84,3.84,0,0,1-7.68,0,3.73,3.73,0,0,1,3.83-3.79A3.77,3.77,0,0,1,332.21,327.94Z" transform="translate(-111.55 -304.55)"/><path class="cls-12" d="M355.4,372.83a3.75,3.75,0,1,1,0-7.5,3.64,3.64,0,0,1,3.73,3.86A3.56,3.56,0,0,1,355.4,372.83Z" transform="translate(-111.55 -304.55)"/><path class="cls-13" d="M258.8,346.87c0,1-.07,2,0,2.93a2.58,2.58,0,0,1-1.2,2.5c-3.92,2.9-9.27,1.56-10.35-3.67a8.59,8.59,0,0,1,.64-5.72c2.22-4.47,7.63-4.08,10.39-1.17a2.27,2.27,0,0,1,.48,1.41C258.85,344.38,258.8,345.63,258.8,346.87Z" transform="translate(-111.55 -304.55)"/><path class="cls-14" d="M344.49,346.68c0-1,.08-2.09,0-3.12a2.6,2.6,0,0,1,1.38-2.58c2.2-1.47,4.54-2,7-.72,2.68,1.45,3.33,4,3.34,6.8a6.58,6.58,0,0,1-.15,1.16,6,6,0,0,1-3.88,5.2c-2.48.91-4.72.2-6.74-1.4a2.2,2.2,0,0,1-.92-2C344.53,348.9,344.49,347.79,344.49,346.68Z" transform="translate(-111.55 -304.55)"/><path class="cls-15" d="M338,387.63c0,1.11-.06,2.22,0,3.33a2.41,2.41,0,0,1-1.2,2.29c-2.11,1.41-4.36,2.08-6.81.89a6.08,6.08,0,0,1-3.49-5.67,9.39,9.39,0,0,1,.72-4.57c2-4.16,7.36-4.16,10.23-1.18a2.69,2.69,0,0,1,.51,1.59C338,385.41,338,386.53,338,387.63Z" transform="translate(-111.55 -304.55)"/><path class="cls-16" d="M288.77,344.27H277c.49-3.52,2.64-5.35,6.09-5.29C286.35,339,288.37,340.88,288.77,344.27Z" transform="translate(-111.55 -304.55)"/><path class="cls-17" d="M402.23,344.2c.74-3.57,2.76-5.26,6.09-5.22s5.23,1.75,5.79,5.09C412.79,344.47,404.8,344.58,402.23,344.2Z" transform="translate(-111.55 -304.55)"/><path class="cls-15" d="M371.32,387.57a20.25,20.25,0,0,1,1.07-3.7,5.58,5.58,0,0,1,5.37-3.26,5.66,5.66,0,0,1,5.3,3.4,8.27,8.27,0,0,1,0,7.37,6.05,6.05,0,0,1-6.52,3.28,6.39,6.39,0,0,1-4.9-5.46c-.07-.52-.06-1.05-.08-1.57Z" transform="translate(-111.55 -304.55)"/></svg>